<svg width="23" height="22" viewBox="0 0 23 22" fill="none" xmlns="http://www.w3.org/2000/svg">
<g id="Group 35848">
<g id="Group">
<g id="Vector">
<path d="M2.5 8.30272L10.625 11.6142L9.5 6.5L6.5 5.5L1 3.5L2.5 8.30272Z" fill="url(#paint0_linear_731_8535)"/>
<path d="M10.625 4.99127L18.75 8.30272L21.5 4.5L13 1L10.625 4.99127Z" fill="url(#paint1_linear_731_8535)"/>
<path d="M18.75 8.30272L10.625 5.00001M18.75 8.30272L10.625 4.99127L13 1L21.5 4.5L18.75 8.30272ZM10.625 11.6142L2.5 8.30272L1 3.5L6.5 5.5L9.5 6.5L10.625 11.6142Z" stroke="#1F2123" stroke-width="1.5" stroke-linecap="round" stroke-linejoin="round"/>
</g>
<path id="Vector_2" d="M10.625 11.6142V21.25L2.5 17.9473V8.30273L6.5625 9.95847L10.625 11.6142Z" fill="url(#paint2_linear_731_8535)" stroke="#1F2123" stroke-width="1.5" stroke-linecap="round" stroke-linejoin="round"/>
<path id="Vector_3" d="M18.75 8.30273V17.9473L10.625 21.25V11.6142L18.75 8.30273Z" fill="url(#paint3_linear_731_8535)" stroke="#1F2123" stroke-width="1.5" stroke-linecap="round" stroke-linejoin="round"/>
</g>
<path id="Vector 2498" d="M10.5 4.99997L8 5.99997" stroke="#1F2123" stroke-width="1.5"/>
</g>
<defs>
<linearGradient id="paint0_linear_731_8535" x1="11.25" y1="1" x2="11.25" y2="11.6142" gradientUnits="userSpaceOnUse">
<stop stop-color="#FFD231"/>
<stop offset="1" stop-color="#FFEC54"/>
</linearGradient>
<linearGradient id="paint1_linear_731_8535" x1="11.25" y1="1" x2="11.25" y2="11.6142" gradientUnits="userSpaceOnUse">
<stop stop-color="#FFD231"/>
<stop offset="1" stop-color="#FFEC54"/>
</linearGradient>
<linearGradient id="paint2_linear_731_8535" x1="6.5625" y1="8.30273" x2="6.5625" y2="21.25" gradientUnits="userSpaceOnUse">
<stop stop-color="#FFD231"/>
<stop offset="1" stop-color="#FFEC54"/>
</linearGradient>
<linearGradient id="paint3_linear_731_8535" x1="14.6875" y1="8.30273" x2="14.6875" y2="21.25" gradientUnits="userSpaceOnUse">
<stop stop-color="#FFD231"/>
<stop offset="1" stop-color="#FFEC54"/>
</linearGradient>
</defs>
</svg>
