<svg width="27" height="27" viewBox="0 0 27 27" fill="none" xmlns="http://www.w3.org/2000/svg">
<circle cx="13.5" cy="13.5" r="12.913" fill="white" stroke="#323232" stroke-width="1.17391"/>
<path d="M19.4862 11.0186V17.0559C19.4862 17.886 18.8656 18.5652 18.0966 18.5652H8.3896C7.62734 18.5652 7 17.886 7 17.0559V11.0186C7 10.1885 7.6206 9.50932 8.3896 9.50932H9.96809C10.4066 9.50932 10.7911 9.20745 10.9327 8.75466C11.0744 8.30186 11.4589 8 11.8973 8H14.5956C15.0341 8 15.4185 8.30186 15.5602 8.75466C15.7019 9.20745 16.0864 9.50932 16.5248 9.50932H18.1033C18.8656 9.50932 19.4862 10.1885 19.4862 11.0186Z" stroke="#323232" stroke-width="1.17391" stroke-linecap="round" stroke-linejoin="round"/>
<path d="M13.243 15.6832C14.5691 15.6832 15.6442 14.6082 15.6442 13.282C15.6442 11.9559 14.5691 10.8809 13.243 10.8809C11.9168 10.8809 10.8418 11.9559 10.8418 13.282C10.8418 14.6082 11.9168 15.6832 13.243 15.6832Z" stroke="#323232" stroke-width="1.17391" stroke-linecap="round" stroke-linejoin="round"/>
<path d="M9.5127 9.48108V8.7207" stroke="#323232" stroke-width="1.17391" stroke-linecap="round" stroke-linejoin="round"/>
</svg>
