<svg width="18" height="19" viewBox="0 0 18 19" fill="none" xmlns="http://www.w3.org/2000/svg">
<path d="M1 5.13289L8.4707 1H9.4668L16.9375 5.5921V13.3987L16.4395 13.8579L8.4707 17.9908L1 13.8579V5.13289Z" fill="url(#paint0_linear_1345_26499)"/>
<path d="M16.1338 6.94677L14.809 7.67236L9.54965 10.547C9.15121 10.7491 8.65317 10.7491 8.2647 10.547L3.00531 7.67236L1.68052 6.94677C0.793994 6.46919 0.793994 5.23856 1.68052 4.76098L8.27465 1.15154C8.67309 0.949487 9.17113 0.949487 9.55961 1.15154L16.1537 4.76098C17.0203 5.23856 17.0204 6.47838 16.1338 6.94677Z" stroke="#1F2123" stroke-width="1.49414" stroke-linecap="round" stroke-linejoin="round"/>
<path d="M16.741 9.12344C16.9103 9.65613 16.7111 10.2806 16.1334 10.5929L9.53925 14.2023C9.14081 14.4043 8.64276 14.4043 8.25428 14.2023L1.66014 10.5929C1.12225 10.299 0.913068 9.72958 1.0326 9.21526" stroke="#1F2123" stroke-width="1.49414" stroke-linecap="round" stroke-linejoin="round"/>
<path d="M16.7621 12.8246C16.9015 13.3481 16.6923 13.9359 16.1445 14.239L9.55033 17.8484C9.1519 18.0505 8.65386 18.0505 8.26538 17.8484L1.67123 14.239C1.16322 13.9635 0.944086 13.44 1.02377 12.9532" stroke="#1F2123" stroke-width="1.49414" stroke-linecap="round" stroke-linejoin="round"/>
<defs>
<linearGradient id="paint0_linear_1345_26499" x1="8.96875" y1="1" x2="8.96875" y2="17.9908" gradientUnits="userSpaceOnUse">
<stop stop-color="#FFD231"/>
<stop offset="1" stop-color="#FFEC54"/>
</linearGradient>
</defs>
</svg>
