<svg width="39" height="37" viewBox="0 0 39 37" fill="none" xmlns="http://www.w3.org/2000/svg">
<path d="M27.1062 0H2.71062C1.99172 0 1.30226 0.299862 0.793923 0.833619C0.285583 1.36738 0 2.09131 0 2.84615V34.1539C0 34.9087 0.285583 35.6326 0.793923 36.1664C1.30226 36.7001 1.99172 37 2.71062 37H27.1062C27.8251 37 28.5146 36.7001 29.0229 36.1664C29.5313 35.6326 29.8168 34.9087 29.8168 34.1539V2.84615C29.8168 2.09131 29.5313 1.36738 29.0229 0.833619C28.5146 0.299862 27.8251 0 27.1062 0Z" fill="#FFD231"/>
<path d="M5.1119 9.52307C7.34643 7.33332 11.24 5.05341 13.0308 7.96563C15.2977 11.652 4.20573 18.1457 7.22555 21.2088C10.5234 24.5548 18.863 12.9626 21.9299 16.2507C24.9969 19.5389 15.9562 23.0336 19.6782 27.024" fill="#FFD231"/>
<path d="M5.1119 9.52307C7.34643 7.33332 11.24 5.05341 13.0308 7.96563C15.2977 11.652 4.20573 18.1457 7.22555 21.2088C10.5234 24.5548 18.863 12.9626 21.9299 16.2507C24.9969 19.5389 15.9562 23.0336 19.6782 27.024" stroke="#323232" stroke-width="2.56861" stroke-linecap="round" stroke-linejoin="round"/>
<path d="M23.5035 7.98065L23.4857 12.6756L19.4287 10.3127L23.5035 7.98065Z" fill="#323232"/>
<rect x="7.60742" y="28.7441" width="3.61416" height="3.61416" transform="rotate(22.4597 7.60742 28.7441)" fill="#323232"/>
<mask id="path-6-inside-1_1531_26315" fill="white">
<path fill-rule="evenodd" clip-rule="evenodd" d="M30.0643 18.4406C31.2889 16.8426 33.7198 16.656 35.4952 18.0217C37.3139 19.4201 37.7316 21.8953 36.4178 23.4827L31.094 29.9121C31.064 29.9476 31.0263 29.9757 30.9837 29.9943C30.9411 30.0129 30.8949 30.0214 30.8485 30.0193C30.802 30.0171 30.7567 30.0043 30.7161 29.9818C30.6754 29.9594 30.6404 29.9279 30.6139 29.8898C29.2373 27.9367 27.3056 26.4424 25.0694 25.6007C25.0253 25.5842 24.9856 25.5576 24.9536 25.5231C24.9215 25.4887 24.8979 25.4472 24.8847 25.402C24.8715 25.3568 24.869 25.3092 24.8774 25.2628C24.8858 25.2165 24.9049 25.1728 24.9331 25.1351L30.0643 18.4406ZM23.9567 26.7135C23.9003 26.6968 23.8402 26.6977 23.7843 26.7159C23.7284 26.7342 23.6794 26.769 23.6438 26.8158L23.6161 26.8524C23.5584 26.9284 23.5229 27.0191 23.5138 27.1142L22.7733 32.3276C22.6445 33.24 23.6391 34.025 24.4973 33.6901L29.5077 31.7286C29.6012 31.6923 29.6819 31.6291 29.7397 31.5472L29.7564 31.5285C29.7951 31.4824 29.8184 31.4254 29.8233 31.3655C29.8281 31.3055 29.8142 31.2456 29.7834 31.1939C28.4656 29.0281 26.3884 27.4308 23.9567 26.7135Z"/>
</mask>
<path fill-rule="evenodd" clip-rule="evenodd" d="M30.0643 18.4406C31.2889 16.8426 33.7198 16.656 35.4952 18.0217C37.3139 19.4201 37.7316 21.8953 36.4178 23.4827L31.094 29.9121C31.064 29.9476 31.0263 29.9757 30.9837 29.9943C30.9411 30.0129 30.8949 30.0214 30.8485 30.0193C30.802 30.0171 30.7567 30.0043 30.7161 29.9818C30.6754 29.9594 30.6404 29.9279 30.6139 29.8898C29.2373 27.9367 27.3056 26.4424 25.0694 25.6007C25.0253 25.5842 24.9856 25.5576 24.9536 25.5231C24.9215 25.4887 24.8979 25.4472 24.8847 25.402C24.8715 25.3568 24.869 25.3092 24.8774 25.2628C24.8858 25.2165 24.9049 25.1728 24.9331 25.1351L30.0643 18.4406ZM23.9567 26.7135C23.9003 26.6968 23.8402 26.6977 23.7843 26.7159C23.7284 26.7342 23.6794 26.769 23.6438 26.8158L23.6161 26.8524C23.5584 26.9284 23.5229 27.0191 23.5138 27.1142L22.7733 32.3276C22.6445 33.24 23.6391 34.025 24.4973 33.6901L29.5077 31.7286C29.6012 31.6923 29.6819 31.6291 29.7397 31.5472L29.7564 31.5285C29.7951 31.4824 29.8184 31.4254 29.8233 31.3655C29.8281 31.3055 29.8142 31.2456 29.7834 31.1939C28.4656 29.0281 26.3884 27.4308 23.9567 26.7135Z" fill="#323232"/>
<path d="M30.0643 18.4406L30.858 19.0489L30.8581 19.0489L30.0643 18.4406ZM35.4952 18.0217L34.8855 18.8143L34.8857 18.8144L35.4952 18.0217ZM36.4178 23.4827L37.188 24.1205L37.1882 24.1203L36.4178 23.4827ZM31.094 29.9121L31.8581 30.5572L31.8642 30.5498L31.094 29.9121ZM30.6139 29.8898L31.4345 29.3183L31.4313 29.3136L30.6139 29.8898ZM25.0694 25.6007L25.4216 24.6648L25.4196 24.664L25.0694 25.6007ZM24.9331 25.1351L24.1394 24.5267L24.1331 24.5351L24.9331 25.1351ZM23.9567 26.7135L23.6728 27.6724L23.6738 27.6727L23.9567 26.7135ZM23.6438 26.8158L22.8485 26.2094L22.8453 26.2137L23.6438 26.8158ZM23.6161 26.8524L24.4125 27.4572L24.4146 27.4544L23.6161 26.8524ZM23.5138 27.1142L24.5039 27.2548L24.5071 27.2323L24.5093 27.2096L23.5138 27.1142ZM22.7733 32.3276L21.7833 32.187L21.7832 32.1878L22.7733 32.3276ZM24.4973 33.6901L24.8608 34.6217L24.8619 34.6213L24.4973 33.6901ZM29.5077 31.7286L29.1452 30.7966L29.1431 30.7974L29.5077 31.7286ZM29.7397 31.5472L28.9951 30.8797L28.9562 30.9231L28.9226 30.9707L29.7397 31.5472ZM29.7564 31.5285L30.5011 32.196L30.5122 32.1836L30.5228 32.1709L29.7564 31.5285ZM29.7834 31.1939L30.6428 30.6824L30.6377 30.6741L29.7834 31.1939ZM30.8581 19.0489C31.6863 17.9681 33.4659 17.7223 34.8855 18.8143L36.1049 17.229C33.9737 15.5896 30.8916 15.7172 29.2706 17.8323L30.8581 19.0489ZM34.8857 18.8144C36.3418 19.9341 36.5342 21.7736 35.6474 22.8451L37.1882 24.1203C38.929 22.0169 38.2859 18.9061 36.1048 17.2289L34.8857 18.8144ZM35.6476 22.8449L30.3238 29.2743L31.8642 30.5498L37.188 24.1205L35.6476 22.8449ZM30.3299 29.267C30.3989 29.1853 30.4857 29.1206 30.5836 29.0778L31.3838 30.9107C31.5669 30.8308 31.7292 30.7098 31.8581 30.5571L30.3299 29.267ZM30.5836 29.0778C30.6816 29.035 30.7881 29.0154 30.8948 29.0203L30.8021 31.0182C31.0016 31.0274 31.2007 30.9907 31.3838 30.9107L30.5836 29.0778ZM30.8948 29.0203C31.0016 29.0253 31.1058 29.0547 31.1994 29.1064L30.2328 30.8573C30.4077 30.9539 30.6025 31.0089 30.8021 31.0182L30.8948 29.0203ZM31.1994 29.1064C31.293 29.1581 31.3734 29.2306 31.4345 29.3183L29.7933 30.4612C29.9075 30.6252 30.0578 30.7607 30.2328 30.8573L31.1994 29.1064ZM31.4313 29.3136C29.9392 27.1968 27.8455 25.5771 25.4216 24.6648L24.7171 26.5366C26.7658 27.3077 28.5354 28.6766 29.7965 30.4659L31.4313 29.3136ZM25.4196 24.664C25.5211 24.702 25.6123 24.763 25.6861 24.8424L24.2211 26.2039C24.3589 26.3523 24.5295 26.4664 24.7191 26.5373L25.4196 24.664ZM25.6861 24.8424C25.7598 24.9217 25.814 25.0172 25.8445 25.1211L23.925 25.6829C23.9818 25.8772 24.0832 26.0556 24.2211 26.2039L25.6861 24.8424ZM25.8445 25.1211C25.8749 25.2251 25.8807 25.3347 25.8613 25.4413L23.8934 25.0844C23.8573 25.2836 23.8681 25.4885 23.925 25.6829L25.8445 25.1211ZM25.8613 25.4413C25.842 25.5479 25.7981 25.6485 25.7331 25.7351L24.1331 24.5351C24.0116 24.6971 23.9296 24.8851 23.8934 25.0844L25.8613 25.4413ZM25.7268 25.7434L30.858 19.0489L29.2707 17.8323L24.1394 24.5268L25.7268 25.7434ZM24.2406 25.7547C23.9898 25.6804 23.7224 25.6841 23.4738 25.7654L24.0948 27.6665C23.958 27.7112 23.8108 27.7132 23.6728 27.6724L24.2406 25.7547ZM23.4738 25.7654C23.2252 25.8466 23.0071 26.0014 22.8485 26.2094L24.439 27.4221C24.3517 27.5366 24.2317 27.6218 24.0948 27.6665L23.4738 25.7654ZM22.8453 26.2137L22.8177 26.2503L24.4146 27.4544L24.4422 27.4178L22.8453 26.2137ZM22.8198 26.2476C22.6496 26.4717 22.5452 26.7388 22.5184 27.0189L24.5093 27.2096C24.5007 27.2995 24.4672 27.3852 24.4125 27.4572L22.8198 26.2476ZM22.5238 26.9736L21.7833 32.187L23.7634 32.4683L24.5039 27.2548L22.5238 26.9736ZM21.7832 32.1878C21.6603 33.0577 22.079 33.814 22.6453 34.2613C23.2115 34.7085 24.0435 34.9406 24.8608 34.6217L24.1338 32.7585C24.0929 32.7745 23.9985 32.7815 23.8851 32.6919C23.7717 32.6023 23.7575 32.5099 23.7635 32.4675L21.7832 32.1878ZM24.8619 34.6213L29.8722 32.6598L29.1431 30.7974L24.1328 32.7589L24.8619 34.6213ZM29.8702 32.6606C30.1468 32.553 30.3857 32.3662 30.5568 32.1237L28.9226 30.9707C28.9781 30.892 29.0555 30.8315 29.1452 30.7966L29.8702 32.6606ZM30.4843 32.2147L30.5011 32.196L29.0118 30.861L28.9951 30.8797L30.4843 32.2147ZM30.5228 32.1709C30.6947 31.9659 30.7986 31.7125 30.82 31.4458L28.8265 31.2852C28.8383 31.1384 28.8955 30.999 28.9901 30.8861L30.5228 32.1709ZM30.82 31.4458C30.8415 31.1791 30.7796 30.9124 30.6427 30.6824L28.9241 31.7053C28.8488 31.5788 28.8147 31.432 28.8265 31.2852L30.82 31.4458ZM30.6377 30.6741C29.1907 28.2959 26.9097 26.5419 24.2396 25.7544L23.6738 27.6727C25.867 28.3196 27.7406 29.7602 28.9291 31.7137L30.6377 30.6741Z" fill="#323232" mask="url(#path-6-inside-1_1531_26315)"/>
</svg>
