<svg width="46" height="51" viewBox="0 0 46 51" fill="none" xmlns="http://www.w3.org/2000/svg">
<path d="M17.3076 22.2388C17.1707 22.7705 17.6672 26.3474 17.9326 28.0693L18.8998 32.5706L22.2231 33.4262C23.5524 33.7684 25.8886 32.9525 26.7243 32.459C27.5601 31.9654 29.8963 31.1495 31.2256 31.4917C32.5549 31.834 32.5351 34.6637 32.364 35.3283C32.2271 35.86 30.065 38.7524 29.0011 40.1322C26.8294 41.2267 21.9543 43.2789 19.8274 42.7313C17.1688 42.0468 13.5231 39.6908 12.3649 38.6839C11.2068 37.677 6.74515 32.9848 6.25162 32.1491C5.75808 31.3133 7.81151 23.3375 7.98263 22.6728C8.15375 22.0082 17.4787 21.5741 17.3076 22.2388Z" fill="#323232" stroke="black"/>
<path d="M43.6911 15.9867C42.0529 11.4488 38.5193 7.73259 33.7417 5.94127C32.7341 5.49475 31.6309 6.14622 31.3598 7.19902L27.5199 22.1138L42.3116 18.4381C43.5451 18.0072 44.0368 16.8241 43.6911 15.9867Z" fill="#FFD231"/>
<path fill-rule="evenodd" clip-rule="evenodd" d="M24.7593 14.6676L20.9194 29.5824L35.7562 25.7312C36.7691 25.4306 37.907 26.0978 37.9869 27.241C38.3673 29.397 38.1762 31.593 37.6341 33.6986C35.2398 42.9984 25.5766 48.5558 16.1465 45.9408C7.59379 43.5518 2.07632 34.4602 4.15962 25.6417C6.24292 16.8231 14.5874 11.3004 23.2809 12.416C24.3789 12.5116 25.0304 13.6148 24.7593 14.6676ZM15.3202 25.8956C15.1764 26.4541 14.8167 26.9325 14.3201 27.2257C13.8236 27.519 13.2309 27.6029 12.6724 27.4591C12.114 27.3154 11.6355 26.9556 11.3423 26.4591C11.0491 25.9625 10.9652 25.3699 11.1089 24.8114C11.2527 24.253 11.6124 23.7745 12.109 23.4813C12.6055 23.1881 13.1982 23.1041 13.7566 23.2479C14.3151 23.3917 14.7935 23.7514 15.0868 24.2479C15.38 24.7445 15.4639 25.3372 15.3202 25.8956ZM27.7156 38.0676C28.274 38.2114 28.8667 38.1275 29.3632 37.8342C29.8598 37.541 30.2195 37.0626 30.3633 36.5041C30.5071 35.9457 30.4231 35.353 30.1299 34.8565C29.8367 34.3599 29.3582 34.0002 28.7998 33.8564C28.2413 33.7126 27.6487 33.7966 27.1521 34.0898C26.6556 34.383 26.2958 34.8615 26.1521 35.4199C26.0083 35.9784 26.0922 36.571 26.3855 37.0676C26.6787 37.5641 27.1571 37.9239 27.7156 38.0676ZM20.9018 38.3715C20.758 38.9299 20.3983 39.4084 19.9018 39.7016C19.4052 39.9948 18.8125 40.0788 18.2541 39.935C17.6956 39.7912 17.2172 39.4315 16.924 38.9349C16.6308 38.4384 16.5468 37.8457 16.6906 37.2873C16.8343 36.7288 17.1941 36.2504 17.6906 35.9571C18.1872 35.6639 18.7798 35.58 19.3383 35.7238C19.8967 35.8675 20.3752 36.2273 20.6684 36.7238C20.9616 37.2203 21.0456 37.813 20.9018 38.3715Z" fill="#FFD231"/>
</svg>
