<svg width="41" height="38" viewBox="0 0 41 38" fill="none" xmlns="http://www.w3.org/2000/svg">
<path d="M4.67578 34.9082V11.3188H36.0932V34.9111C36.0932 35.6834 35.7864 36.4242 35.2403 36.9703C34.6941 37.5165 33.9534 37.8233 33.181 37.8233H7.58804C6.81566 37.8233 6.07492 37.5165 5.52876 36.9703C4.98261 36.4242 4.67578 35.6805 4.67578 34.9082Z" fill="#FFD231"/>
<path fill-rule="evenodd" clip-rule="evenodd" d="M31.4583 30.0069C31.4583 30.3931 31.3049 30.7635 31.0318 31.0366C30.7587 31.3096 30.3883 31.463 30.0021 31.463H27.0841C26.6979 31.463 26.3275 31.3096 26.0544 31.0366C25.7813 30.7635 25.6279 30.3931 25.6279 30.0069C25.6279 29.6207 25.7813 29.2503 26.0544 28.9773C26.3275 28.7042 26.6979 28.5508 27.0841 28.5508H29.9963C30.3825 28.5508 30.7529 28.7042 31.026 28.9773C31.299 29.2503 31.4525 29.6207 31.4525 30.0069H31.4583Z" fill="#323232"/>
<path d="M20.3847 33.9881C20.3847 34.3743 20.2313 34.7446 19.9582 35.0177C19.6851 35.2908 19.3147 35.4442 18.9285 35.4442H11.7061C11.3199 35.4442 10.9496 35.2908 10.6765 35.0177C10.4034 34.7446 10.25 34.3743 10.25 33.9881V26.026C10.25 25.6398 10.4034 25.2694 10.6765 24.9963C10.9496 24.7232 11.3199 24.5698 11.7061 24.5698H18.9285C19.3147 24.5698 19.6851 24.7232 19.9582 24.9963C20.2313 25.2694 20.3847 25.6398 20.3847 26.026V33.9881Z" fill="#323232"/>
<path fill-rule="evenodd" clip-rule="evenodd" d="M4.50527 0.838731C4.62267 0.587964 4.80913 0.375868 5.04279 0.227314C5.27646 0.0787601 5.54763 -9.34453e-05 5.82452 8.3104e-08H34.9471C35.224 -9.34453e-05 35.4952 0.0787601 35.7289 0.227314C35.9625 0.375868 36.149 0.587964 36.2664 0.838731L40.6348 10.1813C40.7424 10.4121 40.7876 10.6672 40.7658 10.921H40.7716V14.4011C40.7716 15.9272 40.1135 17.3891 38.9369 18.4666C37.7236 19.5593 36.146 20.1596 34.5132 20.1499H33.7298C32.097 20.1596 30.5194 19.5593 29.3061 18.4666C28.8515 18.0508 28.4661 17.5652 28.1645 17.028C27.815 16.4747 27.1481 16.4601 26.7666 17.0571C26.4754 17.5697 26.0968 18.0473 25.6395 18.4666C24.4255 19.56 22.8467 20.1603 21.2129 20.1499H19.6519C18.0181 20.1603 16.4394 19.56 15.2253 18.4666C14.748 18.0297 14.3473 17.5159 14.04 16.9464C13.6905 16.495 13.0935 16.4892 12.7237 16.9843C12.419 17.5387 12.0254 18.0395 11.5588 18.4666C10.3447 19.56 8.76593 20.1603 7.13213 20.1499H6.25845C4.62465 20.1603 3.0459 19.56 1.83181 18.4666C1.2606 17.9536 0.802665 17.327 0.487256 16.627C0.171846 15.927 0.00589458 15.1689 0 14.4011L0 10.921H0.00582452C-0.0159427 10.6672 0.029245 10.4121 0.136876 10.1813L4.50527 0.838731Z" fill="#323232"/>
</svg>
