<svg width="40" height="40" viewBox="0 0 40 40" fill="none" xmlns="http://www.w3.org/2000/svg">
<path d="M0 9.78521C0 8.67298 0.44183 7.60631 1.22829 6.81985C2.01476 6.03338 3.08143 5.59155 4.19366 5.59155H34.9471C36.0594 5.59155 37.126 6.03338 37.9125 6.81985C38.699 7.60631 39.1408 8.67298 39.1408 9.78521V34.9471C39.1408 36.0594 38.699 37.126 37.9125 37.9125C37.126 38.699 36.0594 39.1408 34.9471 39.1408H4.19366C3.08143 39.1408 2.01476 38.699 1.22829 37.9125C0.44183 37.126 0 36.0594 0 34.9471L0 9.78521Z" fill="#FFD231"/>
<path fill-rule="evenodd" clip-rule="evenodd" d="M9.786 0C10.5275 0 11.2386 0.294554 11.7629 0.818862C12.2872 1.34317 12.5818 2.05429 12.5818 2.79577V8.38731C12.5818 9.12879 12.2872 9.83991 11.7629 10.3642C11.2386 10.8885 10.5275 11.1831 9.786 11.1831C9.04452 11.1831 8.33341 10.8885 7.8091 10.3642C7.28479 9.83991 6.99023 9.12879 6.99023 8.38731V2.79577C6.99023 2.05429 7.28479 1.34317 7.8091 0.818862C8.33341 0.294554 9.04452 0 9.786 0ZM19.5712 0C20.3127 0 21.0238 0.294554 21.5481 0.818862C22.0724 1.34317 22.367 2.05429 22.367 2.79577V8.38731C22.367 9.12879 22.0724 9.83991 21.5481 10.3642C21.0238 10.8885 20.3127 11.1831 19.5712 11.1831C18.8297 11.1831 18.1186 10.8885 17.5943 10.3642C17.07 9.83991 16.7754 9.12879 16.7754 8.38731V2.79577C16.7754 2.05429 17.07 1.34317 17.5943 0.818862C18.1186 0.294554 18.8297 0 19.5712 0ZM32.1522 2.79577C32.1522 2.05429 31.8576 1.34317 31.3333 0.818862C30.809 0.294554 30.0979 0 29.3564 0C28.6149 0 27.9038 0.294554 27.3795 0.818862C26.8552 1.34317 26.5606 2.05429 26.5606 2.79577V8.38731C26.5606 9.12879 26.8552 9.83991 27.3795 10.3642C27.9038 10.8885 28.6149 11.1831 29.3564 11.1831C30.0979 11.1831 30.809 10.8885 31.3333 10.3642C31.8576 9.83991 32.1522 9.12879 32.1522 8.38731V2.79577Z" fill="#323232"/>
<rect x="7" y="16" width="25" height="3" rx="1.5" fill="#323232"/>
<rect x="7" y="22" width="25" height="3" rx="1.5" fill="#323232"/>
<rect x="7" y="28" width="14" height="3" rx="1.5" fill="#323232"/>
</svg>
