<svg width="24" height="24" viewBox="0 0 24 24" fill="none" xmlns="http://www.w3.org/2000/svg">
<path d="M22.7446 8.73194C22.4611 9.66946 21.9495 10.5321 21.2442 11.2373L18.2303 14.2531L18.2298 14.2537C17.1478 15.3347 15.6936 15.9615 14.1647 16.0061C12.6362 16.0507 11.1484 15.51 10.0054 14.4944C10.005 14.4941 10.0044 14.4939 10.0038 14.4939C10.0032 14.4939 10.0027 14.4942 10.0023 14.4946C10.0021 14.4948 10.002 14.4951 10.0019 14.4954C10.0019 14.4956 10.0019 14.4957 10.0019 14.4959C10.0019 14.4963 10.0021 14.4968 10.0025 14.4971L10.0035 14.498C11.1469 15.5143 12.6357 16.0554 14.165 16.0104C15.6944 15.9654 17.1488 15.3378 18.2305 14.256L18.2306 14.2559L21.2441 11.2429L22.7446 8.73194ZM22.7446 8.73194C22.4616 9.67105 21.9502 10.5354 21.2447 11.2423L22.7446 8.73194ZM11.2446 21.2376L12.3611 20.1212L11.2453 21.2436C11.2449 21.244 11.2445 21.2444 11.2441 21.2448C10.1183 22.3691 8.59184 23.0005 7.00041 23C5.40844 22.9995 3.88191 22.3667 2.75663 21.2409C1.63136 20.1152 0.999498 18.5886 1 16.9971C1.0005 15.4056 1.63332 13.8794 2.75931 12.7543L2.75953 12.7541L5.77366 9.74053L5.77394 9.74024C6.85537 8.65815 8.30955 8.03012 9.83894 7.98474C11.3683 7.93935 12.8572 8.48003 14.0009 9.49609L14.0017 9.49678L14.0022 9.49737L14.0023 9.49803L14.0023 9.4987L14.0023 9.4987L14.0019 9.49932L14.0012 9.4998L14.0004 9.50002L13.9996 9.4999L13.9995 9.4999L13.9988 9.49949C12.8552 8.4843 11.3669 7.94422 9.83821 7.98964C8.30956 8.03506 6.85598 8.66254 5.7746 9.74382C5.7746 9.74383 5.77459 9.74384 5.77458 9.74385C5.7744 9.74403 5.77421 9.74422 5.77403 9.7444L2.76048 12.7537L2.76004 12.7541C1.63488 13.879 1.00274 15.4048 1.00274 16.9958C1.00274 18.5868 1.63488 20.1126 2.76004 21.2376C3.88519 22.3625 5.41118 22.9945 7.00231 22.9945C8.59343 22.9945 10.1194 22.3625 11.2446 21.2376ZM12.7583 2.75462C12.7585 2.7545 12.7586 2.75438 12.7587 2.75426C12.8205 2.69261 12.8835 2.63244 12.9477 2.57378C12.8838 2.6323 12.8211 2.69232 12.7596 2.75381L12.2656 3.24772L12.7583 2.75462ZM21.2442 2.75381C21.1828 2.6924 21.1201 2.63247 21.0564 2.57401C21.1203 2.63249 21.1831 2.69245 21.2447 2.75389C21.3278 2.83714 21.4082 2.92258 21.4859 3.01009C21.4081 2.92256 21.3275 2.83709 21.2442 2.75381Z" fill="#1F2123" stroke="#1F2123" stroke-width="2"/>
</svg>
