<svg width="11" height="11" viewBox="0 0 11 11" fill="none" xmlns="http://www.w3.org/2000/svg">
<path d="M5.95174 8.3603L5.95173 8.3603C5.91904 8.3276 5.88022 8.30166 5.83748 8.28396C5.79474 8.26626 5.74893 8.25715 5.70266 8.25715C5.65639 8.25715 5.61058 8.26626 5.56785 8.28396C5.52511 8.30166 5.48628 8.3276 5.45359 8.3603L5.45358 8.36031L4.97014 8.84328C4.59828 9.21478 4.09393 9.42348 3.56805 9.42348C3.04217 9.42348 2.53782 9.21478 2.16596 8.84328C1.79409 8.47178 1.58518 7.9679 1.58518 7.4425C1.58518 6.9171 1.79409 6.41323 2.16596 6.04173L2.16598 6.04171L3.33904 4.87124L3.33906 4.87122M5.95174 8.3603L6.55038 4.2352C6.5887 4.26914 6.61995 4.3103 6.64236 4.35631C6.66476 4.40232 6.67787 4.45229 6.68094 4.50336C6.68401 4.55444 6.67698 4.60562 6.66025 4.65398C6.64353 4.70234 6.61743 4.74693 6.58345 4.78522C6.54947 4.8235 6.50828 4.85472 6.46222 4.8771C6.41617 4.89948 6.36615 4.91258 6.31502 4.91565C6.2639 4.91872 6.21267 4.9117 6.16427 4.89498C6.11586 4.87827 6.07122 4.8522 6.0329 4.81826C5.66196 4.48917 5.1792 4.31409 4.68333 4.32881C4.18746 4.34353 3.71596 4.54694 3.36524 4.89745L3.33906 4.87122M5.95174 8.3603C6.0177 8.42625 6.05475 8.51565 6.05475 8.60886C6.05475 8.70207 6.0177 8.79148 5.95174 8.85742L5.95167 8.85749L5.46832 9.34329C5.4683 9.34331 5.46828 9.34333 5.46825 9.34335C4.96397 9.8468 4.28014 10.1295 3.5672 10.1293C2.85423 10.1291 2.17056 9.84589 1.66658 9.34209C1.1626 8.83828 0.879606 8.15512 0.879831 7.44287C0.880056 6.73063 1.16348 6.04764 1.66778 5.54415L1.66779 5.54414L2.84088 4.3722L2.84089 4.37218C3.32527 3.88789 3.9766 3.60682 4.66161 3.58651C5.34662 3.56619 6.01349 3.80817 6.52578 4.26291L6.52581 4.26294C6.56049 4.29366 6.58877 4.3309 6.60904 4.37253C6.62931 4.41416 6.64117 4.45938 6.64395 4.50559C6.64673 4.5518 6.64037 4.59811 6.62523 4.64186C6.6101 4.68562 6.58648 4.72597 6.55574 4.76062C6.52499 4.79526 6.48771 4.82352 6.44603 4.84377C6.40434 4.86403 6.35907 4.87588 6.3128 4.87866C6.26653 4.88143 6.22017 4.87508 6.17636 4.85996C6.13256 4.84483 6.09216 4.82124 6.05749 4.79054M5.95174 8.3603L3.33906 4.87122M3.33906 4.87122C3.69647 4.51405 4.17694 4.30677 4.68223 4.29177C5.18753 4.27677 5.67949 4.45518 6.05749 4.79054M6.05749 4.79054L6.03296 4.81818L6.05747 4.79052C6.05748 4.79052 6.05748 4.79053 6.05749 4.79054ZM4.97044 6.20646C4.97043 6.20645 4.97042 6.20644 4.97041 6.20643L4.99502 6.17872C4.91762 6.11017 4.81614 6.07514 4.71289 6.08133C4.60964 6.08753 4.51308 6.13445 4.44446 6.21176C4.37584 6.28908 4.34077 6.39047 4.34697 6.49362C4.35318 6.59677 4.40014 6.69323 4.47753 6.76178L5.55961 1.65513C6.06398 1.15241 6.74737 0.870065 7.45986 0.870065C8.17235 0.870065 8.85573 1.1524 9.3601 1.65512C9.86363 2.15903 10.1464 2.84293 10.1464 3.55496C10.1464 4.26698 9.86364 4.94991 9.3601 5.45383L8.18704 6.62576L8.18703 6.62576C7.70253 7.10992 7.05112 7.39082 6.36612 7.41095C5.68111 7.43109 5.01431 7.18894 4.50214 6.73408L4.50211 6.73404C4.43207 6.672 4.38958 6.58472 4.38396 6.49139C4.37835 6.39807 4.41008 6.30633 4.47218 6.23636C4.53428 6.1664 4.62166 6.12393 4.71511 6.11832C4.80856 6.11271 4.9004 6.14442 4.97044 6.20646ZM4.97044 6.20646C5.34825 6.54199 5.84009 6.72066 6.34537 6.70593C6.85067 6.69121 7.33126 6.48419 7.68885 6.12721L7.68887 6.12719L8.86195 4.95428C9.23382 4.58278 9.44274 4.07891 9.44274 3.55351C9.44274 3.02811 9.23382 2.52423 8.86195 2.15273C8.49009 1.78123 7.98574 1.57253 7.45986 1.57253C6.93398 1.57253 6.42964 1.78123 6.05777 2.15273L5.57434 2.6357L5.57432 2.63571C5.50833 2.7017 5.41879 2.7388 5.32541 2.73884C5.23202 2.73888 5.14245 2.70186 5.0764 2.63593C5.01034 2.57 4.97322 2.48057 4.97318 2.3873C4.97314 2.29404 5.01018 2.20457 5.07618 2.13859L5.04997 2.11238L5.07618 2.13858L5.55957 1.65517L4.97044 6.20646Z" fill="white" stroke="white" stroke-width="0.074115"/>
</svg>
