<svg width="11" height="12" viewBox="0 0 11 12" fill="none" xmlns="http://www.w3.org/2000/svg">
<path fill-rule="evenodd" clip-rule="evenodd" d="M2.33463 1.33301H9.0078C9.36176 1.33301 9.70123 1.47348 9.95152 1.72353C10.2018 1.97358 10.3424 2.31272 10.3424 2.66634V9.33301C10.3424 9.68663 10.2018 10.0258 9.95152 10.2758C9.70123 10.5259 9.36176 10.6663 9.0078 10.6663H2.33463C1.98067 10.6663 1.6412 10.5259 1.3909 10.2758C1.14061 10.0258 1 9.68663 1 9.33301V2.66634C1 2.31272 1.14061 1.97358 1.3909 1.72353C1.6412 1.47348 1.98067 1.33301 2.33463 1.33301Z" stroke="white" stroke-width="0.8" stroke-linecap="round" stroke-linejoin="round"/>
<path d="M10.3424 7.99935L8.34048 5.99935L6.33853 7.98935M9.0078 10.666L3.00195 4.66602L1 6.66602" stroke="white" stroke-width="0.8" stroke-linecap="round" stroke-linejoin="round"/>
<path d="M8.27318 3.66602C8.27318 3.81257 8.15415 3.93204 8.00651 3.93204C7.85887 3.93204 7.73984 3.81257 7.73984 3.66602C7.73984 3.51947 7.85887 3.4 8.00651 3.4C8.15415 3.4 8.27318 3.51947 8.27318 3.66602Z" fill="#323232" stroke="white" stroke-width="0.8"/>
</svg>
