<svg width="21" height="24" viewBox="0 0 21 24" fill="none" xmlns="http://www.w3.org/2000/svg">
<g filter="url(#filter0_bd_2846_14899)">
<path d="M5 4C5 3.44772 5.44772 3 6 3H15C15.5523 3 16 3.44772 16 4V16.9169C16 17.3434 15.5003 17.5741 15.1757 17.2974L10.5 13.3125L5.82433 17.2975C5.49971 17.5741 5 17.3434 5 16.9169V4Z" fill="#FFD231"/>
<path d="M5 4C5 3.44772 5.44772 3 6 3H15C15.5523 3 16 3.44772 16 4V16.9169C16 17.3434 15.5003 17.5741 15.1757 17.2974L10.5 13.3125L5.82433 17.2975C5.49971 17.5741 5 17.3434 5 16.9169V4Z" stroke="currentColor" stroke-linejoin="round"/>
</g>
<defs>
<filter id="filter0_bd_2846_14899" x="-9.5" y="-11.5" width="40" height="43.418" filterUnits="userSpaceOnUse" color-interpolation-filters="sRGB">
<feFlood flood-opacity="0" result="BackgroundImageFix"/>
<feGaussianBlur in="BackgroundImageFix" stdDeviation="7"/>
<feComposite in2="SourceAlpha" operator="in" result="effect1_backgroundBlur_2846_14899"/>
<feColorMatrix in="SourceAlpha" type="matrix" values="0 0 0 0 0 0 0 0 0 0 0 0 0 0 0 0 0 0 127 0" result="hardAlpha"/>
<feOffset dy="2"/>
<feGaussianBlur stdDeviation="2"/>
<feComposite in2="hardAlpha" operator="out"/>
<feColorMatrix type="matrix" values="0 0 0 0 0 0 0 0 0 0 0 0 0 0 0 0 0 0 0.07 0"/>
<feBlend mode="normal" in2="effect1_backgroundBlur_2846_14899" result="effect2_dropShadow_2846_14899"/>
<feBlend mode="normal" in="SourceGraphic" in2="effect2_dropShadow_2846_14899" result="shape"/>
</filter>
</defs>
</svg>
