<svg width="41" height="40" viewBox="0 0 41 40" fill="none" xmlns="http://www.w3.org/2000/svg">
<path d="M14.9454 0.741943H0.742188V30.7463H34.8299C35.5833 30.7463 36.3059 30.4301 36.8386 29.8675C37.3713 29.3048 37.6706 28.5416 37.6706 27.7458V0.741943H23.4674C22.3373 0.741943 21.2535 1.21612 20.4544 2.06015C19.6553 2.90419 19.2064 4.04895 19.2064 5.24259C19.2064 4.04895 18.7575 2.90419 17.9584 2.06015C17.1593 1.21612 16.0755 0.741943 14.9454 0.741943Z" fill="#FFD231"/>
<path d="M27.0359 34.8677C29.1127 34.8677 31.1045 34.0426 32.5731 32.5741C34.0416 31.1055 34.8667 29.1137 34.8667 27.0369C34.8667 24.96 34.0416 22.9682 32.5731 21.4996C31.1045 20.0311 29.1127 19.2061 27.0359 19.2061C24.959 19.2061 22.9672 20.0311 21.4987 21.4996C20.0301 22.9682 19.2051 24.96 19.2051 27.0369C19.2051 29.1137 20.0301 31.1055 21.4987 32.5741C22.9672 34.0426 24.959 34.8677 27.0359 34.8677Z" stroke="#3E3E3E" stroke-width="2.7526" stroke-linecap="round" stroke-linejoin="round"/>
<path d="M37.999 38L32.5801 32.5811" stroke="#3E3E3E" stroke-width="2.7526" stroke-linecap="round" stroke-linejoin="round"/>
<rect x="4" y="9" width="13" height="2" rx="1" fill="#323232"/>
<rect x="4" y="14" width="8" height="2" rx="1" fill="#323232"/>
</svg>
