<svg width="42" height="37" viewBox="0 0 42 37" fill="none" xmlns="http://www.w3.org/2000/svg">
<path fill-rule="evenodd" clip-rule="evenodd" d="M12.1811 2.15016C12.1218 1.56046 11.8455 1.01383 11.4057 0.616476C10.966 0.219119 10.3942 -0.000600092 9.80156 0H2.38907C1.75545 9.44169e-09 1.14778 0.251705 0.699742 0.699743C0.251705 1.14778 0 1.75545 0 2.38907C0 3.02269 0.251705 3.63036 0.699742 4.0784C1.14778 4.52644 1.75545 4.77814 2.38907 4.77814H7.64184L8.44457 10.7608C8.44457 10.815 8.44457 10.8723 8.45094 10.9265L9.98631 26.2006C10.1338 27.3019 10.6784 28.3113 11.5178 29.0393C12.3572 29.7673 13.4336 30.1636 14.5447 30.1537H33.1858C34.1718 30.195 35.1446 29.9152 35.958 29.3563C36.7713 28.7974 37.3813 27.9896 37.6963 27.0543V27.0479L41.6463 15.1854C41.8714 14.5008 41.9311 13.7695 41.8204 13.0574C41.7096 12.3453 41.4316 11.6696 41.0092 11.0858C40.5719 10.4717 39.9892 9.97576 39.3132 9.64221C38.6372 9.30867 37.889 9.14796 37.1357 9.1745H13.0857L12.1811 2.15016Z" fill="#FFD231"/>
<path fill-rule="evenodd" clip-rule="evenodd" d="M20.4201 31.9169C20.4201 31.2493 20.2887 30.5883 20.0332 29.9716C19.7778 29.3549 19.4033 28.7946 18.9313 28.3225C18.4593 27.8505 17.899 27.4761 17.2822 27.2207C16.6655 26.9652 16.0045 26.8337 15.337 26.8337C14.6695 26.8337 14.0085 26.9652 13.3918 27.2207C12.7751 27.4761 12.2147 27.8505 11.7427 28.3225C11.2707 28.7946 10.8963 29.3549 10.6408 29.9716C10.3854 30.5883 10.2539 31.2493 10.2539 31.9169C10.2539 33.265 10.7894 34.5579 11.7427 35.5112C12.696 36.4644 13.9889 37 15.337 37C16.6851 37 17.9781 36.4644 18.9313 35.5112C19.8846 34.5579 20.4201 33.265 20.4201 31.9169ZM37.6774 31.9169C37.6774 30.5687 37.1419 29.2758 36.1886 28.3226C35.2353 27.3693 33.9424 26.8337 32.5943 26.8337C31.2462 26.8337 29.9533 27.3693 29 28.3226C28.0467 29.2758 27.5112 30.5687 27.5112 31.9169C27.5112 33.265 28.0467 34.5579 29 35.5112C29.9533 36.4644 31.2462 37 32.5943 37C33.9424 37 35.2353 36.4644 36.1886 35.5112C37.1419 34.5579 37.6774 33.265 37.6774 31.9169Z" fill="#323232"/>
</svg>
