<svg width="38" height="38" viewBox="0 0 38 38" fill="none" xmlns="http://www.w3.org/2000/svg">
<path d="M18.755 37.5114C23.7291 37.5114 28.4995 35.5354 32.0167 32.0182C35.534 28.5009 37.5099 23.7305 37.5099 18.7564C37.5099 13.7823 35.534 9.0119 32.0167 5.49466C28.4995 1.97743 23.7291 0.00146484 18.755 0.00146484C13.7808 0.00146484 9.01044 1.97743 5.4932 5.49466C1.97596 9.0119 0 13.7823 0 18.7564C0 23.7305 1.97596 28.5009 5.4932 32.0182C9.01044 35.5354 13.7808 37.5114 18.755 37.5114Z" fill="#FFD231"/>
<path d="M3.57031 7.7448C4.23209 6.83384 4.97425 5.98451 5.7834 5.20752C7.85806 6.68818 9.53791 8.65506 10.6758 10.9358C11.8895 13.3338 12.5191 16.0265 12.5191 18.7566C12.5251 21.4728 11.8937 24.1524 10.6758 26.5801C9.53755 28.8599 7.85772 30.8258 5.7834 32.3058C4.97153 31.5277 4.23089 30.6785 3.57031 29.7685C5.32807 28.5853 6.74734 26.9648 7.68837 25.0663C8.66836 23.1077 9.17581 20.9467 9.17001 18.7566C9.17501 16.5666 8.66761 14.4058 7.68837 12.4469C6.74734 10.5485 5.32807 8.92794 3.57031 7.7448Z" fill="#323232"/>
<path d="M17.0791 37.4392V0.0739517C18.1933 -0.0246506 19.314 -0.0246506 20.4282 0.0739517V37.4338C19.314 37.5323 18.1933 37.5323 17.0791 37.4338V37.4392Z" fill="#323232"/>
<path d="M33.9371 29.7685C33.2765 30.6785 32.5359 31.5277 31.724 32.3058C29.6493 30.8252 27.9694 28.8583 26.8317 26.5775C25.6141 24.1505 24.9828 21.4719 24.9883 18.7566C24.9883 16.0291 25.618 13.3365 26.8317 10.9385C27.9688 8.65805 29.6477 6.69119 31.7213 5.21021C32.5332 5.9872 33.2753 6.83653 33.9371 7.74748C32.1794 8.93062 30.7601 10.5512 29.8191 12.4496C28.8395 14.4074 28.332 16.5674 28.3374 18.7566C28.3374 20.9751 28.8492 23.1507 29.8191 25.0663C30.7601 26.9648 32.1794 28.5853 33.9371 29.7685Z" fill="#323232"/>
</svg>
