<svg width="40" height="43" viewBox="0 0 40 43" fill="none" xmlns="http://www.w3.org/2000/svg">
<path d="M12.7896 22.4996C14.5449 22.4996 26.8317 23.3772 27.7093 24.2549C28.0018 27.4728 28.4113 34.2598 27.7093 35.664C27.0073 37.0682 26.8316 38.0043 26.8315 38.2968C24.7837 38.5894 19.8105 38.9989 16.3 38.2968C11.9119 37.4192 8.40136 33.9087 7.52373 32.1535C6.64611 30.3982 5.76862 26.8877 4.891 22.4996C4.01337 18.1115 11.0344 22.4996 12.7896 22.4996Z" fill="#323232"/>
<path fill-rule="evenodd" clip-rule="evenodd" d="M13.038 7.01528C13.0382 6.1227 13.2765 5.24633 13.7283 4.4766C14.1802 3.70686 14.8293 3.07164 15.6086 2.63649C16.3879 2.20134 17.2692 1.98202 18.1616 2.00115C19.054 2.02029 19.9251 2.2772 20.685 2.74536C21.4449 3.21352 22.0662 3.87598 22.4846 4.66438C22.9031 5.45279 23.1036 6.33857 23.0655 7.23032C23.0273 8.12208 22.7519 8.98751 22.2677 9.73731C21.7835 10.4871 21.1079 11.0941 20.3108 11.4957V15.9189H28.5856C30.5807 15.9189 32.494 16.7115 33.9048 18.1222C35.3155 19.533 36.1081 21.4464 36.1081 23.4415V35.4775C36.1081 37.4726 35.3155 39.386 33.9048 40.7967C32.494 42.2075 30.5807 43 28.5856 43H7.52252C5.52742 43 3.61404 42.2075 2.20329 40.7967C0.792549 39.386 0 37.4726 0 35.4775V23.4415C0 21.4464 0.792549 19.533 2.20329 18.1222C3.61404 16.7115 5.52742 15.9189 7.52252 15.9189H15.7973V11.4957C14.9675 11.0777 14.2702 10.4374 13.783 9.64634C13.2958 8.85523 13.0379 7.94437 13.038 7.01528ZM24.6889 35.0743C24.8584 34.8945 24.9909 34.6831 25.0787 34.4521C25.1665 34.2211 25.2079 33.9751 25.2007 33.7281C25.1934 33.4811 25.1376 33.2379 25.0363 33.0125C24.9351 32.7871 24.7905 32.5838 24.6107 32.4143C24.4309 32.2448 24.2195 32.1123 23.9885 32.0245C23.7575 31.9367 23.5115 31.8953 23.2645 31.9025C23.0175 31.9098 22.7743 31.9656 22.5489 32.0669C22.3235 32.1681 22.1202 32.3128 21.9507 32.4925C21.2737 33.2147 19.8233 33.7654 18.054 33.7654C16.2847 33.7654 14.8344 33.2117 14.1574 32.4925C13.9879 32.3128 13.7846 32.1681 13.5592 32.0669C13.3338 31.9656 13.0906 31.9098 12.8436 31.9025C12.5966 31.8953 12.3506 31.9367 12.1196 32.0245C11.8886 32.1123 11.6772 32.2448 11.4974 32.4143C11.3176 32.5838 11.173 32.7871 11.0717 33.0125C10.9705 33.2379 10.9147 33.4811 10.9074 33.7281C10.9001 33.9751 10.9416 34.2211 11.0294 34.4521C11.1172 34.6831 11.2497 34.8945 11.4192 35.0743C13.0802 36.8345 15.7281 37.5266 18.054 37.5266C20.38 37.5266 23.0279 36.8345 24.6889 35.0743ZM12.1624 28.644C12.7609 28.644 13.335 28.4063 13.7582 27.983C14.1814 27.5598 14.4192 26.9858 14.4192 26.3873C14.4192 25.7887 14.1814 25.2147 13.7582 24.7915C13.335 24.3683 12.7609 24.1305 12.1624 24.1305C11.5639 24.1305 10.9899 24.3683 10.5666 24.7915C10.1434 25.2147 9.90565 25.7887 9.90565 26.3873C9.90565 26.9858 10.1434 27.5598 10.5666 27.983C10.9899 28.4063 11.5639 28.644 12.1624 28.644ZM26.2024 26.3873C26.2024 26.9858 25.9647 27.5598 25.5414 27.983C25.1182 28.4063 24.5442 28.644 23.9457 28.644C23.3472 28.644 22.7731 28.4063 22.3499 27.983C21.9267 27.5598 21.6889 26.9858 21.6889 26.3873C21.6889 25.7887 21.9267 25.2147 22.3499 24.7915C22.7731 24.3683 23.3472 24.1305 23.9457 24.1305C24.5442 24.1305 25.1182 24.3683 25.5414 24.7915C25.9647 25.2147 26.2024 25.7887 26.2024 26.3873Z" fill="#FFD231"/>
<path d="M37.101 2.42597L33.9746 6.71881L36.6888 7.99672L33.8092 11.7652" stroke="#FFD231" stroke-width="3" stroke-linecap="round"/>
<circle cx="18" cy="7" r="5" fill="#323232"/>
</svg>
