<svg width="40" height="41" viewBox="0 0 40 41" fill="none" xmlns="http://www.w3.org/2000/svg">
<path fill-rule="evenodd" clip-rule="evenodd" d="M22.9204 1.20887C22.1456 0.434805 21.0952 0 20 0C18.9048 0 17.8544 0.434805 17.0796 1.20887L13.642 4.64362H8.77562C6.49245 4.64362 4.64362 6.49245 4.64362 8.77562V13.642L1.20887 17.0796C0.434805 17.8544 0 18.9048 0 20C0 21.0952 0.434805 22.1456 1.20887 22.9204L4.64362 26.358V31.2215C4.64362 33.5018 6.49245 35.3535 8.77562 35.3535H13.6391L17.0796 38.794C18.6913 40.4056 21.3088 40.4056 22.9204 38.794L26.3609 35.3535H31.2187C33.5018 35.3535 35.3507 33.5018 35.3507 31.2215V26.3637L38.7911 22.9204C39.5652 22.1456 40 21.0952 40 20C40 18.9048 39.5652 17.8544 38.7911 17.0796L35.3507 13.6363V8.77562C35.3507 6.49245 33.5018 4.64362 31.2187 4.64362H26.358L22.9204 1.20887Z" fill="#FFD231"/>
<path d="M19.9996 10.665L22.0954 17.1151L28.8774 17.1151L23.3906 21.1014L25.4864 27.5515L19.9996 23.5651L14.5129 27.5515L16.6086 21.1014L11.1219 17.1151L17.9039 17.1151L19.9996 10.665Z" fill="#323232"/>
</svg>
