<svg width="62" height="62" viewBox="0 0 62 62" fill="none" xmlns="http://www.w3.org/2000/svg">
<circle cx="31.0005" cy="31" r="30.7241" fill="#1F2123"/>
<path d="M41.932 26.301C39.9488 27.5193 38.7239 29.6077 38.7239 31.9282C38.7239 34.5388 40.2988 36.9173 42.6903 37.9035C42.2237 39.4118 41.5237 40.8041 40.6487 42.0803C39.3655 43.8787 38.0239 45.7351 36.0407 45.7351C34.0575 45.7351 33.4742 44.5749 31.141 44.5749C28.8661 44.5749 28.0495 45.7931 26.1829 45.7931C24.3164 45.7931 23.0331 44.1108 21.5749 42.0223C19.65 39.1217 18.5417 35.757 18.4834 32.2183C18.4834 26.4751 22.2165 23.4004 25.9496 23.4004C27.9328 23.4004 29.5661 24.6767 30.791 24.6767C31.9576 24.6767 33.8242 23.3424 36.0407 23.3424C38.3739 23.2844 40.5904 24.3866 41.932 26.301ZM34.9908 20.9059C35.9824 19.7457 36.5073 18.2953 36.5657 16.787C36.5657 16.613 36.5657 16.3809 36.5073 16.2069C34.8158 16.3809 33.2409 17.1931 32.1326 18.4694C31.141 19.5716 30.5577 20.9639 30.4994 22.4722C30.4994 22.6463 30.4994 22.8203 30.5577 22.9943C30.6743 22.9943 30.8493 23.0523 30.966 23.0523C32.5409 22.9363 33.9991 22.1242 34.9908 20.9059Z" fill="white"/>
</svg>
