<svg width="62" height="62" viewBox="0 0 62 62" fill="none" xmlns="http://www.w3.org/2000/svg">
<circle cx="30.7437" cy="31" r="30.7241" fill="#FFE300"/>
<path fill-rule="evenodd" clip-rule="evenodd" d="M15.9521 30.7008C15.9521 23.7193 22.8398 18.4828 30.7453 18.4828C38.6507 18.4828 45.5384 23.7193 45.5384 30.7008C45.5384 37.6823 38.6507 42.9187 30.7453 42.9187C29.9686 42.9187 29.2038 42.8699 28.4582 42.775L24.1682 45.5521C23.9248 45.7096 23.6388 45.7935 23.3463 45.7931C23.0539 45.7928 22.7681 45.7082 22.525 45.55C22.282 45.3919 22.0927 45.1673 21.981 44.9047C21.8693 44.642 21.8403 44.3531 21.8975 44.0744L22.5558 40.8819C18.6563 38.7359 15.9521 35.0374 15.9521 30.7008Z" fill="#1E1E1E"/>
</svg>
